<svg version="1.1" id="Layer_1" xmlns="http://www.w3.org/2000/svg" xmlns:xlink="http://www.w3.org/1999/xlink" x="0px" y="0px"
	 width="100%" viewBox="0 0 512 512" enable-background="new 0 0 512 512" xml:space="preserve">
<path fill="#000000" opacity="1.000000" stroke="none" 
	d="
M237.523071,427.640991 
	C201.534119,418.922852 172.360168,400.227966 149.351013,371.807037 
	C142.397385,363.217926 136.578369,353.916504 131.790176,343.970184 
	C130.689606,341.683990 129.700882,340.446259 126.541832,341.027161 
	C106.480064,344.716187 88.631203,330.689728 86.645065,310.194061 
	C85.402992,297.376678 86.547035,284.960114 91.814331,273.095703 
	C92.487930,271.578461 92.529839,270.282990 91.629639,268.871246 
	C84.275391,257.337830 82.580170,244.135300 81.982063,231.069504 
	C80.428391,197.129395 87.540909,164.922073 106.656067,136.545334 
	C129.658936,102.397202 162.404297,82.192947 202.808990,74.835503 
	C232.600372,69.410683 262.721405,68.602470 292.879883,70.853302 
	C314.363251,72.456696 335.343964,76.791512 355.724731,83.918900 
	C360.587128,85.619347 365.607178,86.871033 370.560822,88.308159 
	C389.019653,93.663353 398.963379,106.286064 402.402008,124.861450 
	C404.236481,134.771225 403.065491,144.064438 398.676666,153.026321 
	C396.696838,157.069061 396.066833,161.085220 397.497925,165.533951 
	C402.749878,181.860291 401.212494,197.310837 391.372803,211.724747 
	C388.546051,215.865570 389.877991,218.431625 394.794983,219.478760 
	C410.307220,222.782303 419.412689,232.676666 420.248199,248.472122 
	C421.414246,270.516876 416.436920,291.030121 403.153687,309.097290 
	C402.760498,309.632050 402.377319,310.295044 401.825500,310.574463 
	C391.113770,315.998199 392.021698,326.181366 391.285431,335.803772 
	C389.797668,355.247955 384.190063,373.463898 373.251099,389.657471 
	C358.992950,410.764709 338.178619,422.222595 313.978363,428.322083 
	C288.570648,434.725891 263.228363,434.131531 237.523071,427.640991 
M239.842209,410.599609 
	C263.118927,416.633698 286.450928,417.411255 309.918427,411.607208 
	C354.205231,400.654053 371.923767,369.858429 374.696564,328.908844 
	C374.897919,325.934967 374.209869,324.402191 370.717682,324.188538 
	C358.612152,323.447968 348.067078,318.525421 339.433502,310.246979 
	C324.914124,296.324799 321.977020,278.252502 322.928619,259.263092 
	C323.325134,251.350052 323.749878,251.224411 315.669647,251.355453 
	C314.010468,251.382355 312.354248,251.584930 310.696442,251.703842 
	C307.518707,251.931808 306.152557,253.345032 306.205933,256.811371 
	C306.395386,269.116180 303.857971,281.057800 299.138641,292.300537 
	C292.178864,308.880463 282.280182,322.963745 263.718292,328.401978 
	C248.944305,332.730499 235.368546,328.100250 222.074829,322.623871 
	C205.751083,315.899261 196.271561,303.214722 192.589066,286.136566 
	C190.933426,278.458252 190.423355,270.686737 191.550476,262.829163 
	C191.912262,260.307129 192.450500,257.217773 188.064972,257.316406 
	C180.406754,257.488586 172.744949,257.585236 165.085098,257.562805 
	C161.803726,257.553192 160.938232,259.033508 160.846436,262.143616 
	C160.660614,268.438019 160.689606,274.756958 159.453003,281.002716 
	C158.667114,284.972107 156.391800,287.338074 152.618805,287.950714 
	C148.882736,288.557373 146.270554,286.467377 144.584061,283.261475 
	C142.768646,279.810516 140.223831,276.929108 137.360962,274.397644 
	C128.786804,266.816040 113.808716,268.040466 108.272530,279.143005 
	C103.585419,288.542755 102.370461,298.533813 103.896805,308.778015 
	C105.495491,319.507690 114.874329,328.304596 127.660431,322.616974 
	C135.487106,319.135437 140.618240,320.950409 143.207169,328.633575 
	C143.833374,330.491974 145.222748,332.078461 146.094101,333.871185 
	C165.393936,373.579468 196.798111,398.576385 239.842209,410.599609 
M233.352036,190.977051 
	C229.837112,186.213806 231.112732,181.275543 233.148849,176.018585 
	C219.403488,178.847305 206.111832,181.878540 193.518799,187.268982 
	C186.768585,190.158401 180.535873,193.801590 175.776794,199.799728 
	C167.098526,210.737442 164.595322,223.744308 162.438477,236.941315 
	C161.958679,239.876999 163.436630,240.777664 166.169098,240.658813 
	C174.989365,240.275223 183.813004,239.959763 192.637619,239.693207 
	C194.515305,239.636505 195.796982,238.921677 196.636429,237.266357 
	C201.557495,227.562393 210.256424,223.572876 220.315338,221.680038 
	C234.297546,219.048935 248.410538,217.976089 262.528351,219.837326 
	C275.468323,221.543274 288.331879,223.989304 297.589630,234.628647 
	C299.144745,236.415878 300.779938,236.470062 302.937866,235.853226 
	C311.590515,233.379944 320.303619,232.944595 329.021301,235.646164 
	C330.866699,236.218048 332.427032,236.171921 333.979492,234.554184 
	C343.562012,224.568832 355.684448,220.067093 369.163300,218.696808 
	C371.332031,218.476334 372.470184,217.692261 372.686279,215.401886 
	C373.390778,207.934830 374.261993,200.447998 373.629822,192.964706 
	C372.693542,181.881927 365.989838,173.280304 352.718170,177.674515 
	C350.036713,178.562332 347.280823,179.274017 344.513367,179.844452 
	C334.759308,181.855011 324.960602,183.030579 315.874908,177.616226 
	C312.741669,175.749084 310.316589,175.967010 307.134277,177.362335 
	C290.198334,184.788208 273.158295,192.035538 254.700287,194.861145 
	C247.494446,195.964233 240.062180,197.360138 233.352036,190.977051 
M209.032410,261.293579 
	C207.133560,276.550537 208.143250,291.056580 220.846970,301.965363 
	C227.735535,307.880646 236.463684,309.962708 245.044022,311.938416 
	C255.598114,314.368561 264.842590,311.668793 272.174408,303.533569 
	C283.394104,291.084442 287.824158,275.930023 288.683197,259.641388 
	C289.220215,249.458252 285.056122,243.899948 275.486328,240.385666 
	C273.157959,239.530609 270.736755,238.863739 268.306274,238.361923 
	C254.285172,235.467072 240.280411,236.062012 226.198700,238.229797 
	C214.851547,239.976624 212.041565,242.282196 210.077972,253.497467 
	C209.678040,255.781754 209.452545,258.096588 209.032410,261.293579 
M340.481750,273.889771 
	C341.513794,278.591339 342.407410,283.338257 344.362610,287.774292 
	C349.389435,299.179565 358.664734,304.804626 370.531799,306.772003 
	C373.842560,307.320862 375.245911,306.107727 375.052277,302.372131 
	C374.381683,289.433624 374.175476,276.471619 373.570801,263.528931 
	C373.206726,255.735565 372.333466,247.966965 371.891022,240.175766 
	C371.721954,237.197845 370.600677,236.113022 367.591583,236.271530 
	C355.296997,236.919235 343.186462,246.734787 340.582916,258.578583 
	C339.539551,263.324982 340.037292,268.182770 340.481750,273.889771 
M397.534332,284.085052 
	C398.819916,279.624237 400.388672,275.222076 401.328125,270.689514 
	C402.937622,262.924072 404.956604,255.137772 402.725677,247.101395 
	C401.472015,242.585342 399.542664,238.762665 394.706146,237.110489 
	C390.353241,235.623520 389.179932,236.211533 389.391449,240.838226 
	C390.065704,255.586029 390.928955,270.325378 391.762299,285.065552 
	C391.919647,287.848694 392.275116,290.620667 392.615723,294.202576 
	C395.294220,290.797577 395.986603,287.666138 397.534332,284.085052 
z"/>
</svg>